# This file uses centimeters as units for non-parametric coordinates.

mtllib box_open.mtl
g default
v -2.270876 -0.091084 2.270876
v 2.270876 -0.091084 2.270876
v 2.270876 4.450668 2.270876
v -2.270876 4.450668 2.270876
v -2.270876 -0.091084 -2.270876
v -2.270876 4.450668 -2.270876
v 2.270876 -0.091084 -2.270876
v 2.270876 4.450668 -2.270876
v -2.093808 4.450668 -2.093808
v 2.093808 4.450668 -2.093808
v 2.093808 4.450668 2.093808
v -2.093808 4.450668 2.093808
v 2.093808 -0.000919 2.093808
v -2.093808 -0.000919 2.093808
v -2.093808 -0.000919 -2.093808
v 2.093808 -0.000919 -2.093808
v 3.739582 5.919374 -2.270876
v 3.739582 5.919374 2.270876
v 2.361665 4.359880 -2.270876
v 3.830370 5.828585 -2.270876
v 2.361665 4.359880 2.270876
v 3.830370 5.828585 2.270876
v -3.675196 5.854989 2.270876
v -3.675196 5.854989 -2.270876
v -2.379048 4.342496 2.270876
v -3.783368 5.746816 2.270876
v -2.379048 4.342496 -2.270876
v -3.783368 5.746816 -2.270876
v 2.270876 4.450668 2.270876
v 2.270876 4.450668 2.270876
v 2.270876 4.450668 2.270876
v 2.270876 4.450668 2.270876
v 2.270876 4.450668 2.270876
v -2.270876 4.450668 2.270876
v -2.270876 4.450668 2.270876
v -2.270876 4.450668 2.270876
v -2.270876 4.450668 2.270876
v -2.270876 4.450668 2.270876
v -2.270876 4.450668 -2.270876
v -2.270876 4.450668 -2.270876
v -2.270876 4.450668 -2.270876
v -2.270876 4.450668 -2.270876
v -2.270876 4.450668 -2.270876
v 2.270876 4.450668 -2.270876
v 2.270876 4.450668 -2.270876
v 2.270876 4.450668 -2.270876
v 2.270876 4.450668 -2.270876
v 2.270876 4.450668 -2.270876
vt 0.167761 0.335525
vt 0.335521 0.335525
vt 0.167761 0.503285
vt 0.335521 0.503285
vt 0.000000 0.335525
vt 0.167761 0.167764
vt 0.000000 0.167764
vt 0.335521 0.167764
vt 0.503282 0.335525
vt 0.503282 0.167764
vt 0.167761 0.000004
vt 0.335521 0.000004
vt 0.490171 0.674439
vt 0.325741 0.674346
vt 0.006632 0.674166
vt 0.171062 0.674259
vt 0.006544 0.828845
vt 0.170974 0.828938
vt 0.325654 0.829026
vt 0.325561 0.993456
vt 0.332379 0.503379
vt 0.000095 0.667622
vt 0.496621 0.835663
vt 0.164337 0.999905
vt 0.595922 0.179493
vt 0.432068 0.157237
vt 0.604603 0.102069
vt 0.443150 0.079540
vt 0.630183 0.020730
vt 0.625886 0.018385
vt 0.602654 0.097831
vt 0.434718 0.006510
vt 0.445843 0.075580
vt 0.439409 0.004812
vt 0.812847 0.162949
vt 0.647234 0.160231
vt 0.812381 0.088337
vt 0.648908 0.085108
vt 0.828888 0.008018
vt 0.823482 0.005762
vt 0.809524 0.083573
vt 0.631484 0.016220
vt 0.651494 0.080016
vt 0.636825 0.013500
vt 0.626347 0.013578
vt 0.439896 0.000000
vt 0.823369 0.000001
vt 0.636747 0.007729
vt 0.171154 0.509829
vt 0.164618 0.503284
vt 0.000000 0.835382
vt 0.170881 0.993368
vt 0.332098 1.000000
vt 0.490084 0.829119
vt 0.496716 0.667902
vt 0.325834 0.509916
vn 0.000000 0.000000 1.000000
vn 0.000000 0.000000 1.000000
vn 0.000000 0.000000 1.000000
vn 0.000000 0.000000 1.000000
vn -1.000000 0.000000 0.000000
vn -1.000000 0.000000 0.000000
vn -1.000000 0.000000 0.000000
vn -1.000000 0.000000 0.000000
vn 0.000000 -1.000000 0.000000
vn 0.000000 -1.000000 0.000000
vn 0.000000 -1.000000 0.000000
vn 0.000000 -1.000000 0.000000
vn 1.000000 -0.000000 0.000000
vn 1.000000 -0.000000 0.000000
vn 1.000000 -0.000000 0.000000
vn 1.000000 0.000000 0.000000
vn 0.000000 0.000000 -1.000000
vn 0.000000 0.000000 -1.000000
vn 0.000000 0.000000 -1.000000
vn 0.000000 0.000000 -1.000000
vn 0.000000 0.000000 -1.000000
vn 0.000000 0.000000 -1.000000
vn 0.000000 0.000000 -1.000000
vn 0.000000 0.000000 -1.000000
vn 1.000000 0.000000 0.000000
vn 1.000000 0.000000 0.000000
vn 1.000000 0.000000 0.000000
vn 1.000000 0.000000 0.000000
vn 0.000000 1.000000 0.000000
vn 0.000000 1.000000 0.000000
vn 0.000000 1.000000 0.000000
vn 0.000000 1.000000 0.000000
vn -1.000000 0.000000 0.000000
vn -1.000000 0.000000 0.000000
vn -1.000000 0.000000 0.000000
vn -1.000000 0.000000 0.000000
vn 0.000000 0.000000 1.000000
vn 0.000000 0.000000 1.000000
vn 0.000000 0.000000 1.000000
vn 0.000000 0.000000 1.000000
vn 0.000000 1.000000 0.000000
vn 0.000000 1.000000 0.000000
vn 0.000000 1.000000 0.000000
vn 0.000000 1.000000 0.000000
vn 0.000000 1.000000 -0.000000
vn 0.000000 1.000000 -0.000000
vn 0.000000 1.000000 -0.000000
vn 0.000000 1.000000 0.000000
vn -0.707107 0.707107 0.000000
vn -0.707107 0.707107 0.000000
vn -0.707107 0.707107 0.000000
vn -0.707107 0.707107 0.000000
vn 0.000000 0.000000 -1.000000
vn 0.000000 0.000000 -1.000000
vn 0.000000 0.000000 -1.000000
vn 0.000000 0.000000 -1.000000
vn 0.000001 0.000000 1.000000
vn 0.000000 0.000000 1.000000
vn 0.000001 0.000000 1.000000
vn 0.000000 0.000000 1.000000
vn 0.707105 0.707108 0.000000
vn 0.707109 0.707105 0.000000
vn 0.707105 0.707108 0.000000
vn 0.707109 0.707105 0.000000
vn 0.707107 -0.707107 0.000000
vn 0.707107 -0.707107 0.000000
vn 0.662133 -0.749386 0.000000
vn 0.662133 -0.749386 0.000000
vn 0.707107 0.707107 0.000000
vn 0.707107 0.707107 0.000000
vn 0.707107 0.707107 0.000000
vn 0.707107 0.707107 0.000000
vn -0.000000 0.000000 1.000000
vn 0.000001 0.000000 1.000000
vn -0.000000 0.000000 1.000000
vn 0.000002 0.000000 1.000000
vn -0.000000 0.000000 -1.000000
vn 0.000001 0.000000 -1.000000
vn -0.000000 0.000000 -1.000000
vn 0.000002 0.000000 -1.000000
vn -0.707108 0.707106 0.000000
vn -0.707108 0.707106 0.000000
vn -0.707108 0.707106 0.000000
vn -0.707108 0.707106 0.000000
vn -0.707107 -0.707107 0.000000
vn -0.707107 -0.707107 0.000000
vn -0.650712 -0.759325 0.000000
vn -0.650712 -0.759325 0.000000
vn -0.707107 -0.707107 0.000000
vn -0.707108 -0.707105 0.000000
vn 0.707106 -0.707107 0.000000
vn 0.707106 -0.707107 0.000000
s 1
g polySurface1
usemtl initialShadingGroup
f 1/1/1 2/2/2 38/3/3
f 38/3/3 2/2/2 33/4/4
s 2
f 1/1/5 4/5/6 5/6/7
f 5/6/7 4/5/6 40/7/8
s 3
f 1/1/9 5/6/10 2/2/11
f 2/2/11 5/6/10 7/8/12
s 4
f 2/2/13 7/8/14 3/9/15
f 3/9/15 7/8/14 45/10/16
s 5
f 5/6/17 6/11/18 7/8/19
f 7/8/19 6/11/18 8/12/20
s 6
f 11/56/21 13/14/22 12/49/23
f 12/49/23 13/14/22 14/16/24
s 7
f 9/17/25 12/15/26 15/18/27
f 15/18/27 12/15/26 14/16/28
s 8
f 13/14/29 16/19/30 14/16/31
f 14/16/31 16/19/30 15/18/32
s 9
f 10/54/33 16/19/34 11/13/35
f 11/13/35 16/19/34 13/14/36
s 10
f 9/52/37 15/18/38 10/20/39
f 10/20/39 15/18/38 16/19/40
s 11
f 30/21/41 11/56/42 35/50/43
f 11/56/42 12/49/44 35/50/43
f 30/55/41 44/23/45 11/13/42
f 11/13/42 44/23/45 10/54/46
f 44/53/45 39/24/47 10/20/46
f 10/20/46 39/24/47 9/52/48
f 39/51/47 35/22/43 9/17/48
f 12/15/44 9/17/48 35/22/43
s 12
f 46/25/49 29/26/50 17/27/51
f 17/27/51 29/26/50 18/28/52
s 13
f 48/29/53 17/27/54 19/30/55
f 19/30/55 17/27/54 20/31/56
s 14
f 18/28/57 32/32/58 22/33/59
f 22/33/59 32/32/58 21/34/60
s 15
f 17/27/61 18/28/62 20/31/63
f 20/31/63 18/28/62 22/33/64
s 16
f 20/31/65 22/33/66 19/30/67
f 19/30/67 22/33/66 21/34/68
s 17
f 34/35/69 41/36/70 23/37/71
f 23/37/71 41/36/70 24/38/72
s 18
f 37/39/73 23/37/74 25/40/75
f 25/40/75 23/37/74 26/41/76
s 19
f 24/38/77 43/42/78 28/43/79
f 28/43/79 43/42/78 27/44/80
s 20
f 23/37/81 24/38/82 26/41/83
f 26/41/83 24/38/82 28/43/84
s 21
f 26/41/85 28/43/86 25/40/87
f 25/40/87 28/43/86 27/44/88
s 16
f 19/30/67 21/34/68 47/45/89
f 47/45/89 21/34/68 31/46/90
s 21
f 25/40/87 27/44/88 36/47/91
f 36/47/91 27/44/88 42/48/92
