# This file uses centimeters as units for non-parametric coordinates.

mtllib enemy_projectile.mtl
g default
v -0.000000 0.464015 0.981061
v 0.346906 0.810921 0.000000
v -0.000000 0.954545 0.000000
v -0.346906 0.810921 0.000000
v -0.490600 0.464015 0.000000
v -0.346906 0.117108 0.000000
v -0.000000 -0.026516 -0.000000
v 0.346906 0.117108 0.000000
v 0.490600 0.464015 0.000000
v -0.000000 0.464015 -0.981061
vt 0.252928 0.750732
vt 0.193814 0.000000
vt 0.032989 0.114202
vt 0.000000 0.308672
vt 0.114199 0.469515
vt 0.308683 0.502493
vt 0.469508 0.388291
vt 0.502497 0.193821
vt 0.388299 0.032978
vt 0.251249 0.251247
vt 0.187438 1.000000
vt 0.382883 0.973298
vt 0.502199 0.816213
vt 0.475485 0.620782
vt 0.318419 0.501464
vt 0.122973 0.528166
vt 0.003658 0.685251
vt 0.030372 0.880681
vn 0.347261 0.838766 0.419383
vn 0.347261 0.838766 0.419383
vn 0.347261 0.838766 0.419383
vn -0.347261 0.838766 0.419383
vn -0.347261 0.838766 0.419383
vn -0.347261 0.838766 0.419383
vn -0.838696 0.347399 0.419407
vn -0.838696 0.347399 0.419407
vn -0.838696 0.347399 0.419407
vn -0.838696 -0.347399 0.419407
vn -0.838696 -0.347399 0.419407
vn -0.838696 -0.347399 0.419407
vn -0.347261 -0.838766 0.419383
vn -0.347261 -0.838766 0.419383
vn -0.347261 -0.838766 0.419383
vn 0.347261 -0.838766 0.419383
vn 0.347261 -0.838766 0.419383
vn 0.347261 -0.838766 0.419383
vn 0.838696 -0.347399 0.419407
vn 0.838696 -0.347399 0.419407
vn 0.838696 -0.347399 0.419407
vn 0.838696 0.347399 0.419407
vn 0.838696 0.347399 0.419407
vn 0.838696 0.347399 0.419407
vn 0.347261 0.838766 -0.419383
vn 0.347261 0.838766 -0.419383
vn 0.347261 0.838766 -0.419383
vn -0.347261 0.838766 -0.419383
vn -0.347261 0.838766 -0.419383
vn -0.347261 0.838766 -0.419383
vn -0.838696 0.347399 -0.419407
vn -0.838696 0.347399 -0.419407
vn -0.838696 0.347399 -0.419407
vn -0.838696 -0.347399 -0.419407
vn -0.838696 -0.347399 -0.419407
vn -0.838696 -0.347399 -0.419407
vn -0.347261 -0.838766 -0.419383
vn -0.347261 -0.838766 -0.419383
vn -0.347261 -0.838766 -0.419383
vn 0.347261 -0.838766 -0.419383
vn 0.347261 -0.838766 -0.419383
vn 0.347261 -0.838766 -0.419383
vn 0.838696 -0.347399 -0.419407
vn 0.838696 -0.347399 -0.419407
vn 0.838696 -0.347399 -0.419407
vn 0.838696 0.347399 -0.419407
vn 0.838696 0.347399 -0.419407
vn 0.838696 0.347399 -0.419407
s off
g projectile
usemtl initialShadingGroup
f 2/11/1 3/18/2 1/1/3
f 3/18/4 4/17/5 1/1/6
f 4/17/7 5/16/8 1/1/9
f 5/16/10 6/15/11 1/1/12
f 6/15/13 7/14/14 1/1/15
f 7/14/16 8/13/17 1/1/18
f 8/13/19 9/12/20 1/1/21
f 9/12/22 2/11/23 1/1/24
f 2/2/25 10/10/26 3/3/27
f 3/3/28 10/10/29 4/4/30
f 4/4/31 10/10/32 5/5/33
f 5/5/34 10/10/35 6/6/36
f 6/6/37 10/10/38 7/7/39
f 7/7/40 10/10/41 8/8/42
f 8/8/43 10/10/44 9/9/45
f 9/9/46 10/10/47 2/2/48
